<svg width="414" height="151" viewBox="0 0 414 151" fill="none" xmlns="http://www.w3.org/2000/svg">
  <g id="9d1338502a87e3fd388a44ce46f7b30b">
    <g clip-path="url(#clip0_115_3)">
      <rect width="414" height="151" rx="10" fill="white"></rect>
      <path id="8d3b90878b35f41cf2e2fc77321b75a7" opacity="0.59" d="M0 -15L414 -15V165H0V-15Z" fill="url(#77f2af3b4547625b5cab47c0b982824e)"></path>
      <g id="77f9c53ea0d9f9213da3330e71a118d4">
        <path d="M355 -16C355 31.4965 316.496 70 269 70C221.504 70 183 31.4965 183 -16C183 -63.4965 221.504 -102 269 -102C316.496 -102 355 -63.4965 355 -16Z" fill="white" fill-opacity="0.49"></path>
        <path d="M336.49 -16.0819C336.49 21.2368 306.237 51.4895 268.918 51.4895C231.599 51.4895 201.347 21.2368 201.347 -16.0819C201.347 -53.4006 231.599 -83.6533 268.918 -83.6533C306.237 -83.6533 336.49 -53.4006 336.49 -16.0819Z" fill="white" fill-opacity="0.3"></path>
        <path d="M315.276 -15.7952C315.276 9.64932 294.649 30.2762 269.205 30.2762C243.76 30.2762 223.133 9.64932 223.133 -15.7952C223.133 -41.2398 243.76 -61.8667 269.205 -61.8667C294.649 -61.8667 315.276 -41.2398 315.276 -15.7952Z" fill="#FCE588"></path>
        <path d="M353.215 30.2688L350.269 27.3229C349.456 26.5094 348.135 26.5094 347.323 27.3229C346.509 28.1365 346.509 29.4552 347.323 30.2688L350.269 33.2146C350.675 33.6219 351.208 33.825 351.742 33.825C352.275 33.825 352.808 33.6219 353.215 33.2146C354.028 32.4011 354.028 31.0823 353.215 30.2688Z" fill="white"></path>
        <path d="M346.25 42.9167H342.083C340.933 42.9167 340 43.85 340 45C340 46.15 340.933 47.0833 342.083 47.0833H346.25C347.4 47.0833 348.333 46.15 348.333 45C348.333 43.85 347.4 42.9167 346.25 42.9167Z" fill="white"></path>
        <path d="M353.215 56.7854C352.402 55.9719 351.081 55.9719 350.269 56.7854L347.323 59.7313C346.509 60.5448 346.509 61.8636 347.323 62.6771C347.729 63.0844 348.263 63.2875 348.796 63.2875C349.329 63.2875 349.863 63.0844 350.269 62.6771L353.215 59.7313C354.028 58.9177 354.028 57.599 353.215 56.7854Z" fill="white"></path>
        <path d="M365 61.6667C363.85 61.6667 362.917 62.6 362.917 63.75V67.9167C362.917 69.0667 363.85 70 365 70C366.15 70 367.083 69.0667 367.083 67.9167V63.75C367.083 62.6 366.15 61.6667 365 61.6667Z" fill="white"></path>
        <path d="M382.677 59.7313L379.731 56.7854C378.919 55.9719 377.598 55.9719 376.785 56.7854C375.972 57.599 375.972 58.9177 376.785 59.7313L379.731 62.6771C380.138 63.0844 380.671 63.2875 381.204 63.2875C381.738 63.2875 382.271 63.0844 382.677 62.6771C383.491 61.8636 383.491 60.5448 382.677 59.7313Z" fill="white"></path>
        <path d="M387.917 42.9167H383.75C382.6 42.9167 381.667 43.85 381.667 45C381.667 46.15 382.6 47.0833 383.75 47.0833H387.917C389.067 47.0833 390 46.15 390 45C390 43.85 389.067 42.9167 387.917 42.9167Z" fill="white"></path>
        <path d="M382.677 27.3229C381.865 26.5094 380.544 26.5094 379.731 27.3229L376.785 30.2688C375.972 31.0823 375.972 32.4011 376.785 33.2146C377.192 33.6219 377.725 33.825 378.258 33.825C378.792 33.825 379.325 33.6219 379.731 33.2146L382.677 30.2688C383.491 29.4552 383.491 28.1365 382.677 27.3229Z" fill="white"></path>
        <path d="M365 20C363.85 20 362.917 20.9333 362.917 22.0833V26.25C362.917 27.4 363.85 28.3333 365 28.3333C366.15 28.3333 367.083 27.4 367.083 26.25V22.0833C367.083 20.9333 366.15 20 365 20Z" fill="white"></path>
        <path d="M365 31.4583C357.533 31.4583 351.458 37.5333 351.458 45C351.458 52.4667 357.533 58.5417 365 58.5417C372.467 58.5417 378.542 52.4667 378.542 45C378.542 37.5333 372.467 31.4583 365 31.4583ZM365 54.375C359.831 54.375 355.625 50.1687 355.625 45C355.625 39.8313 359.831 35.625 365 35.625C370.169 35.625 374.375 39.8313 374.375 45C374.375 50.1687 370.169 54.375 365 54.375Z" fill="white"></path>
      </g>
    </g>
  </g>
  <defs>
    <linearGradient id="77f2af3b4547625b5cab47c0b982824e" x1="0" y1="75" x2="414" y2="75" gradientUnits="userSpaceOnUse">
      <stop stop-color="#00D2FF"></stop>
      <stop offset="1" stop-color="#3A7BD5"></stop>
    </linearGradient>
    <clipPath id="clip0_115_3">
      <rect width="414" height="151" rx="10" fill="white"></rect>
    </clipPath>
  </defs>
</svg>